<?xml version="1.0" standalone="no"?>
<!DOCTYPE svg PUBLIC "-//W3C//DTD SVG 20010904//EN"
 "http://www.w3.org/TR/2001/REC-SVG-20010904/DTD/svg10.dtd">
<svg version="1.0" xmlns="http://www.w3.org/2000/svg"
 width="300.000000pt" height="300.000000pt" viewBox="0 0 300.000000 300.000000"
 preserveAspectRatio="xMidYMid meet">
<metadata>
Created by potrace 1.14, written by Peter Selinger 2001-2017
</metadata>
<g transform="translate(0.000000,300.000000) scale(0.100000,-0.100000)"
fill="#000000" stroke="none">
<path d="M1320 2990 c-341 -47 -643 -195 -879 -431 -411 -411 -547 -1016 -351
-1566 150 -422 500 -766 925 -911 165 -57 281 -75 470 -76 172 -1 274 10 396
43 62 18 64 17 109 -3 65 -30 170 -28 230 3 54 28 322 290 355 346 12 22 26
53 30 70 3 16 22 46 41 67 l34 38 0 -42 0 -43 121 120 c156 156 174 185 174
290 0 57 -5 93 -19 122 -18 40 -18 43 2 130 62 269 53 549 -24 795 -170 538
-613 930 -1169 1034 -96 18 -355 26 -445 14z m-639 -510 c5 0 116 -108 247
-240 l237 -240 346 0 345 0 220 231 c120 127 227 235 236 240 31 17 78 10 103
-16 l25 -24 0 -568 c0 -530 -1 -573 -19 -635 -25 -87 -62 -154 -122 -222 -47
-52 -471 -371 -562 -421 -130 -73 -338 -72 -467 3 -99 57 -518 366 -563 415
-52 56 -120 185 -136 257 -7 28 -11 261 -11 611 l0 566 23 20 c24 22 54 33 75
27 8 -2 18 -4 23 -4z"/>
<path d="M640 1868 c0 -588 1 -595 63 -712 18 -33 55 -84 84 -112 47 -48 59
-54 129 -69 181 -41 364 6 496 128 l38 34 -80 139 c-44 76 -80 144 -80 150 0
6 8 18 18 27 27 25 362 25 386 1 9 -8 16 -21 16 -28 0 -7 -34 -71 -75 -142
-41 -71 -75 -134 -75 -141 0 -19 98 -101 155 -128 94 -44 169 -58 275 -52 52
3 116 13 142 22 84 29 175 148 210 274 16 60 18 112 18 606 l-1 540 -110 -115
c-60 -63 -160 -168 -221 -232 -61 -64 -126 -124 -146 -134 -32 -15 -68 -16
-386 -9 -318 6 -354 9 -382 25 -16 11 -122 113 -234 227 -112 114 -212 214
-222 221 -17 13 -18 -6 -18 -520z"/>
<path d="M1445 1318 c55 -96 53 -94 63 -83 5 6 26 40 47 78 l37 67 -92 0 -91
0 36 -62z"/>
<path d="M1446 1019 c-108 -88 -242 -139 -363 -139 -35 0 -63 -3 -63 -7 0 -8
127 -101 253 -185 130 -88 285 -99 417 -30 59 31 299 202 300 215 0 4 -31 7
-68 7 -128 0 -273 56 -366 141 l-51 46 -59 -48z"/>
</g>
</svg>
